<?xml version="1.0" standalone="no"?>
<svg xmlns="http://www.w3.org/2000/svg" width="48" height="48"><rect width="48" height="48" opacity="0"></rect><g><path d="M27.5 34.99Q27.5 33.55 26.47 32.52Q25.44 31.49 24 31.49Q22.56 31.49 21.53 32.52Q20.5 33.55 20.5 34.99Q20.5 36.43 21.53 37.46Q22.56 38.5 24 38.5Q25.44 38.5 26.47 37.46Q27.5 36.43 27.5 34.99ZM27.5 13.01Q27.5 11.52 26.47 10.51Q25.44 9.5 24 9.5Q22.56 9.5 21.53 10.51Q20.5 11.52 20.5 13.01Q20.5 14.45 21.53 15.48Q22.56 16.51 24 16.51Q25.44 16.51 26.47 15.48Q27.5 14.45 27.5 13.01Z" fill="rgba(255,255,255,1)"></path></g></svg>