<?xml version="1.0" standalone="no"?>
<svg xmlns="http://www.w3.org/2000/svg" width="48" height="48"><rect width="48" height="48" opacity="0"></rect><g><path d="M5.04 18.67Q5.04 15.12 6.31 12.58Q7.58 10.03 9.91 8.74Q12.24 7.44 15.46 7.44Q17.57 7.44 19.51 8.3Q21.46 9.17 22.94 10.75Q23.33 11.23 24 11.23Q24.72 11.23 25.1 10.75Q26.59 9.17 28.54 8.3Q30.48 7.44 32.54 7.44Q36.14 7.44 38.5 9.05Q40.85 10.66 41.9 13.2Q42.96 15.74 42.96 18.67Q42.96 22.32 38.88 27.84Q36.62 30.86 33.58 33.84Q30.53 36.82 27.84 38.71Q25.15 40.61 24 40.61Q22.85 40.61 20.3 38.76Q17.76 36.91 14.74 33.94Q11.71 30.96 9.26 27.84Q7.34 25.44 6.19 22.97Q5.04 20.5 5.04 18.67ZM32.54 4.46Q30.19 4.46 28.01 5.3Q25.82 6.14 24 7.68Q22.18 6.14 19.99 5.3Q17.81 4.46 15.46 4.46Q11.57 4.46 8.5 6.34Q5.42 8.21 3.72 11.35Q2.02 14.5 2.02 18.24Q2.02 21.55 4.34 25.7Q6.67 29.86 10.42 33.79Q14.4 37.97 18.17 40.75Q21.94 43.54 23.95 43.54Q26.21 43.54 29.83 40.82Q33.46 38.11 37.54 33.79Q41.23 29.95 43.61 25.78Q45.98 21.6 45.98 18.24Q45.98 14.5 44.26 11.35Q42.53 8.21 39.46 6.34Q36.38 4.46 32.54 4.46Z" fill="rgba(0,0,0,1)"></path></g></svg>