<?xml version="1.0" standalone="no"?>
<svg xmlns="http://www.w3.org/2000/svg" width="48" height="48"><rect width="48" height="48" opacity="0"></rect><g><path d="M23.47 9.98Q24.1 9.98 24.53 9.55Q24.96 9.12 24.96 8.5Q24.96 7.87 24.53 7.44Q24.1 7.01 23.47 7.01L6.58 7.01Q5.95 7.01 5.5 7.44Q5.04 7.87 5.04 8.5Q5.04 9.12 5.5 9.55Q5.95 9.98 6.58 9.98L23.47 9.98ZM24.96 20.59Q24.96 19.97 24.53 19.51Q24.1 19.06 23.47 19.06L6.58 19.06Q5.95 19.06 5.5 19.51Q5.04 19.97 5.04 20.59Q5.04 21.22 5.5 21.65Q5.95 22.08 6.58 22.08L23.47 22.08Q24.1 22.08 24.53 21.65Q24.96 21.22 24.96 20.59ZM17.9 26.11Q17.28 26.11 16.85 26.54Q16.42 26.98 16.42 27.6L16.42 31.92Q16.18 31.2 15.5 30.77L8.06 26.5Q7.58 26.21 7.06 26.21Q6.53 26.21 6.05 26.5Q5.57 26.74 5.3 27.22Q5.04 27.7 5.04 28.22L5.04 36.82Q5.04 37.34 5.3 37.82Q5.57 38.3 6.05 38.54Q6.53 38.83 7.03 38.83Q7.54 38.83 8.02 38.59L8.06 38.54L15.5 34.22Q15.84 34.03 16.08 33.74Q16.32 33.46 16.42 33.07L16.42 37.34Q16.42 37.97 16.85 38.4Q17.28 38.83 17.9 38.83Q18.53 38.83 18.98 38.4Q19.44 37.97 19.44 37.34L19.44 27.65Q19.44 27.02 18.98 26.57Q18.53 26.11 17.9 26.11ZM8.06 29.9L12.48 32.5L8.06 35.04Z" fill="rgba(0,0,0,0.9019607843137255)"></path><path d="M36.67 7.78Q35.66 7.87 35.02 8.64Q34.37 9.41 34.42 10.42L34.42 25.73Q34.37 26.88 34.01 27.53Q33.65 28.18 33.02 28.51Q32.4 28.85 31.06 29.38L30.82 29.47Q30.67 29.52 30.53 29.57Q28.18 30.48 26.66 31.51Q25.15 32.54 24.53 34.32Q23.95 35.71 24.26 37.03Q24.58 38.35 25.58 39.31Q26.59 40.27 28.01 40.68Q29.42 41.09 31.01 40.9Q33.55 40.61 35.04 39.24Q36.53 37.87 37.03 36.12Q37.54 34.37 37.44 32.74L37.44 13.87Q37.54 13.1 37.85 12.79Q38.16 12.48 38.93 12.19Q39.74 11.95 40.7 11.38Q41.57 10.85 42.12 10.15Q42.67 9.46 42.84 8.66Q43.01 7.87 42.82 7.01L36.67 7.78ZM30.67 37.97Q29.62 38.06 28.75 37.8Q27.89 37.54 27.46 36.91Q27.02 36.29 27.31 35.38Q27.65 34.56 28.54 33.91Q29.42 33.26 31.25 32.45Q32.83 31.78 34.42 31.1L34.42 33.22Q34.42 34.8 33.67 36.26Q32.93 37.73 30.67 37.97Z" fill="rgba(0,0,0,0.9019607843137255)"></path></g></svg>