<?xml version="1.0" standalone="no"?>
<svg xmlns="http://www.w3.org/2000/svg" width="48" height="48"><rect width="48" height="48" opacity="0"></rect><g><path d="M19.34 6.24Q17.57 6.53 16.42 7.9Q15.26 9.26 15.26 11.09L15.26 28.22Q15.26 29.62 14.81 30.46Q14.35 31.3 13.58 31.82Q12.82 32.35 11.23 33.17L11.09 33.26Q9.31 34.13 8.16 34.97Q7.01 35.81 6.29 37.3Q5.66 38.64 5.78 40.03Q5.9 41.42 6.72 42.53Q7.44 43.54 8.57 44.09Q9.7 44.64 11.09 44.64Q12.91 44.64 14.57 43.8Q16.22 42.96 17.23 41.45Q18.24 39.94 18.24 38.02L18.24 18.34L39.22 14.88L39.22 23.71Q39.22 25.68 38.23 26.66Q37.25 27.65 35.04 28.7Q35.04 28.7 35.02 28.73Q34.99 28.75 34.99 28.75Q33.26 29.57 32.09 30.43Q30.91 31.3 30.19 32.78Q29.57 34.13 29.69 35.52Q29.81 36.91 30.62 38.02Q31.44 39.17 32.83 39.72Q34.22 40.27 35.81 40.08Q38.02 39.79 39.46 38.66Q40.9 37.54 41.54 36.1Q42.19 34.66 42.19 33.46L42.19 8.45Q42.19 6.91 41.35 5.64Q40.51 4.37 39.14 3.77Q37.78 3.17 36.24 3.41L19.34 6.24ZM11.52 41.62Q10.51 41.76 9.79 41.35Q9.07 40.94 8.83 40.18Q8.59 39.41 9.02 38.54Q9.41 37.73 10.15 37.2Q10.9 36.67 12.38 35.95Q13.1 35.62 13.87 35.21Q14.64 34.8 15.26 34.32L15.26 37.44Q15.26 38.59 14.52 39.98Q13.78 41.38 11.52 41.62ZM18.29 11.09Q18.29 10.37 18.74 9.84Q19.2 9.31 19.87 9.22L36.72 6.38Q37.68 6.24 38.45 6.86Q39.22 7.49 39.22 8.45L39.22 11.86L18.29 15.31L18.29 11.09ZM35.47 37.1Q34.42 37.2 33.7 36.77Q32.98 36.34 32.78 35.59Q32.59 34.85 32.98 34.03Q33.36 33.17 34.1 32.66Q34.85 32.16 36.29 31.44L36.34 31.44L36.43 31.39Q37.15 31.06 37.9 30.65Q38.64 30.24 39.22 29.81L39.22 32.93Q39.22 33.7 38.98 34.54Q38.74 35.38 37.92 36.14Q37.1 36.91 35.47 37.1Z" fill="rgba(0,0,0,0.9019607843137255)"></path></g></svg>