<?xml version="1.0" standalone="no"?>
<svg xmlns="http://www.w3.org/2000/svg" width="48" height="48"><rect width="48" height="48" opacity="0"></rect><g mask="url(#hms_mask_0)"><path d="M11.86 3.98Q9.74 3.98 7.92 5.04Q6.1 6.1 5.04 7.92Q3.98 9.74 3.98 11.86L3.98 36.1Q3.98 38.26 5.04 40.08Q6.1 41.9 7.92 42.96Q9.74 44.02 11.86 44.02L36.1 44.02Q38.26 44.02 40.06 42.96Q41.86 41.9 42.91 40.08Q43.97 38.26 43.97 36.1L43.97 11.86Q43.97 9.74 42.91 7.92Q41.86 6.1 40.06 5.04Q38.26 3.98 36.14 3.98L11.86 3.98Z" fill="rgba(255,255,255,1)"></path></g><defs><mask id="hms_mask_0"><rect width="48" height="48" fill="#ffffff"></rect><g><path d="M11.81 40.99Q9.94 40.99 8.57 39.72Q7.2 38.45 7.01 36.58L27.12 21.94Q28.08 21.26 29.21 21.05Q30.34 20.83 31.44 21.14Q32.54 21.46 33.41 22.22L40.99 28.7L40.99 36.1Q40.99 38.11 39.58 39.55Q38.16 40.99 36.14 40.99L11.81 40.99ZM16.99 14.5Q18.43 14.5 19.46 15.53Q20.5 16.56 20.5 18Q20.5 19.44 19.46 20.47Q18.43 21.5 16.99 21.5Q15.55 21.5 14.52 20.47Q13.49 19.44 13.49 18Q13.49 16.56 14.52 15.53Q15.55 14.5 16.99 14.5Z" fill="#000000"></path></g></mask></defs></svg>