<?xml version="1.0" standalone="no"?>
<svg xmlns="http://www.w3.org/2000/svg" width="48" height="48"><rect width="48" height="48" opacity="0"></rect><g><path d="M23.52 9.98Q24.14 9.98 24.58 9.55Q25.01 9.12 25.01 8.5Q25.01 7.87 24.58 7.44Q24.14 7.01 23.52 7.01L6.58 7.01Q5.95 7.01 5.52 7.44Q5.09 7.87 5.09 8.5Q5.09 9.12 5.52 9.55Q5.95 9.98 6.58 9.98L23.52 9.98ZM25.01 20.59Q25.01 19.97 24.58 19.51Q24.14 19.06 23.52 19.06L6.58 19.06Q5.95 19.06 5.52 19.51Q5.09 19.97 5.09 20.59Q5.09 21.22 5.52 21.65Q5.95 22.08 6.58 22.08L23.52 22.08Q24.14 22.08 24.58 21.65Q25.01 21.22 25.01 20.59ZM17.95 27.74Q17.52 27.31 16.9 27.31Q16.27 27.31 15.84 27.74L12.53 31.06L9.31 27.84L9.22 27.74Q8.78 27.41 8.18 27.43Q7.58 27.46 7.2 27.84Q6.82 28.22 6.74 28.75Q6.67 29.28 7.01 29.71Q7.1 29.9 7.2 29.95L10.42 33.17L7.3 36.29Q6.86 36.72 6.86 37.34Q6.86 37.97 7.3 38.4Q7.68 38.88 8.35 38.88Q9.02 38.88 9.41 38.4L12.53 35.28L15.74 38.54Q16.18 38.98 16.8 38.98Q17.42 38.98 17.86 38.54Q18.29 38.06 18.29 37.44Q18.29 36.82 17.86 36.38L14.64 33.17L17.95 29.86Q18.38 29.42 18.38 28.8Q18.38 28.18 17.95 27.74Z" fill="rgba(0,0,0,0.9019607843137255)"></path><path d="M36.67 7.78Q35.66 7.87 35.02 8.64Q34.37 9.41 34.42 10.42L34.42 25.73Q34.37 26.88 34.01 27.53Q33.65 28.18 33.02 28.51Q32.4 28.85 31.06 29.38Q30.96 29.42 30.82 29.47Q30.67 29.52 30.53 29.57Q28.18 30.48 26.66 31.51Q25.15 32.54 24.53 34.32Q23.81 36.19 24.55 37.82Q25.3 39.46 27.1 40.32Q28.9 41.18 31.01 40.9Q33.55 40.61 35.04 39.24Q36.53 37.87 37.03 36.12Q37.54 34.37 37.44 32.74L37.44 13.87Q37.49 13.34 37.68 13.03Q37.87 12.72 38.21 12.53Q38.54 12.34 38.93 12.19Q39.74 11.95 40.7 11.38Q41.57 10.85 42.12 10.15Q42.67 9.46 42.84 8.66Q43.01 7.87 42.82 7.01L36.67 7.78ZM30.67 37.97Q29.62 38.06 28.75 37.8Q27.89 37.54 27.46 36.91Q27.02 36.29 27.31 35.38Q27.7 34.32 29.04 33.55Q30.38 32.78 33.98 31.3Q34.13 31.2 34.42 31.1L34.42 33.22Q34.42 34.8 33.67 36.26Q32.93 37.73 30.67 37.97Z" fill="rgba(0,0,0,0.9019607843137255)"></path></g></svg>