<?xml version="1.0" standalone="no"?>
<svg xmlns="http://www.w3.org/2000/svg" width="48" height="48"><rect width="48" height="48" opacity="0"></rect><g><path d="M33.31 14.54L39.26 14.54Q39.55 14.54 39.77 14.33Q39.98 14.11 39.98 13.82Q39.98 13.54 39.74 13.3L33.98 7.68Q33.79 7.44 33.5 7.44Q33.22 7.44 33 7.66Q32.78 7.87 32.78 8.16L32.78 11.52L14.64 11.52Q11.23 11.52 8.35 13.2Q5.47 14.88 3.79 17.76Q2.11 20.64 2.11 24Q2.11 27.26 3.7 30.1Q4.03 30.72 4.66 30.84Q5.28 30.96 5.76 30.67Q6.29 30.34 6.46 29.74Q6.62 29.14 6.34 28.61Q5.14 26.54 5.14 24Q5.14 21.41 6.41 19.25Q7.68 17.09 9.86 15.82Q12.05 14.54 14.64 14.54ZM44.3 17.9Q44.02 17.38 43.39 17.21Q42.77 17.04 42.24 17.33Q41.71 17.62 41.54 18.22Q41.38 18.82 41.66 19.34Q42.86 21.46 42.86 23.95Q42.86 26.54 41.59 28.73Q40.32 30.91 38.14 32.18Q35.95 33.46 33.36 33.46L14.69 33.46L8.74 33.46Q8.45 33.46 8.26 33.67Q8.06 33.89 8.06 34.18Q8.06 34.46 8.26 34.66L14.02 40.32Q14.21 40.51 14.5 40.51Q14.78 40.51 15 40.3Q15.22 40.08 15.22 39.79L15.22 36.43L33.36 36.43Q36.77 36.43 39.65 34.75Q42.53 33.07 44.21 30.19Q45.89 27.31 45.89 23.95Q45.89 20.64 44.3 17.9Z" fill="rgba(0,0,0,0.9019607843137255)"></path></g><g><path d="M25.3 29.9Q25.87 29.9 26.18 29.57Q26.5 29.23 26.5 28.61L26.5 19.34Q26.5 18.24 25.78 18.1Q25.06 17.95 23.9 18.48L21.94 19.63Q21.22 20.02 21.07 20.4Q20.93 20.78 21.07 21.26Q21.17 21.6 21.62 21.72Q22.08 21.84 22.61 21.55L24.14 20.69L24.14 28.66Q24.14 29.28 24.43 29.59Q24.72 29.9 25.3 29.9Z" fill="rgba(25,25,25,1)"></path></g></svg>